<?xml version="1.0" encoding="UTF-8"?>
<svg width="24px" height="24px" viewBox="0 0 24 24" version="1.1" xmlns="http://www.w3.org/2000/svg" xmlns:xlink="http://www.w3.org/1999/xlink">
    <!-- Generator: Sketch 50 (54983) - http://www.bohemiancoding.com/sketch -->
    <title>Artboard</title>
    <desc>Created with Sketch.</desc>
    <defs></defs>
    <g id="Artboard" stroke="none" stroke-width="1" fill="none" fill-rule="evenodd">
        <rect id="Rectangle-19" fill="#ED2630" x="0" y="0" width="24" height="24"></rect>
        <g id="未标题-1" transform="translate(4.000000, 2.000000)" fill="#FFFFFF" fill-rule="nonzero">
            <path d="M8.0157827,13.6623143 C8.03153639,13.6257751 8.04682809,13.5889757 8.06304377,13.5526967 C8.25559912,13.1220341 8.56937933,12.8925971 8.99191082,12.8485627 C9.29109231,12.8173847 9.58265104,12.8710484 9.86404611,12.9808741 C10.0749885,13.0632174 10.2244406,13.237221 10.3348088,13.452188 C10.4735891,13.722224 10.5118415,14.0178166 10.4740511,14.3210085 C10.4490115,14.5216097 10.4030902,14.7203891 10.3517637,14.9150565 C10.2547468,15.2830508 10.058357,15.5779147 9.78176658,15.7977224 C9.18714568,16.2701813 8.53214334,16.424562 7.82507529,16.2146438 C7.43737747,16.099561 7.1468351,15.8356149 6.9961356,15.4024538 C6.93182728,15.2175718 6.91242391,15.0238933 6.91057597,14.8269877 C6.91034498,14.8022118 6.90872803,14.7773839 6.90711109,14.7526601 C6.90688009,14.7492769 6.90299942,14.7462059 6.89302054,14.7316839 C6.86192895,14.7301224 6.82242923,14.7266351 6.78288332,14.7263748 C6.58801804,14.7249695 6.40105271,14.6801543 6.22406626,14.589483 C5.86653606,14.4063707 5.64695459,14.086835 5.54956815,13.6675713 C5.41032587,13.068006 5.43157718,12.4691694 5.62561088,11.8880819 C5.83077842,11.2736824 6.23446092,10.8874705 6.78219034,10.6892636 C7.16069465,10.5523198 7.54783809,10.5119289 7.94112592,10.6017153 C7.9910665,10.6131143 8.04008311,10.6300827 8.09427395,10.6459059 C8.10111133,10.6287293 8.10965805,10.6150922 8.11201418,10.6002579 C8.1760453,10.1943191 8.37456025,9.89211609 8.67734523,9.67111129 C8.89179867,9.51464864 9.12981334,9.42288428 9.37993202,9.38275364 C10.1110695,9.26543268 10.8239586,9.35802984 11.5135174,9.65481961 C11.7927411,9.77500333 12.041058,9.95530493 12.2409128,10.2101423 C12.547024,10.6004661 12.6628899,11.0601207 12.6234363,11.5739595 C12.6180311,11.644123 12.608237,11.7138181 12.5996441,11.7911646 C12.6137809,11.7997008 12.6283796,11.8124531 12.6449186,11.8178663 C12.9618866,11.9215502 13.2101111,12.1375061 13.4146781,12.4216477 C13.6398958,12.7344689 13.7809398,13.0951242 13.8645591,13.483418 C14.0552665,14.3692069 14.0639518,15.2518208 13.7650475,16.1105956 C13.319463,17.3907162 12.516071,18.2415795 11.327476,18.6005171 C10.736551,18.778997 10.1424845,18.7493804 9.55183664,18.5821955 C9.53400402,18.5771466 9.5161714,18.5720977 9.49806159,18.5685583 C9.49117801,18.567205 9.48360146,18.5699637 9.48276988,18.5700678 C9.36699644,18.7169012 9.26106328,18.8670658 9.14090098,19.0008346 C8.67997854,19.5138926 8.12407198,19.8210403 7.48708706,19.9428896 C6.86714938,20.0615118 6.25802215,19.9856748 5.65550131,19.8045404 C5.22215938,19.674311 4.80267699,19.5054604 4.41816687,19.2396925 C4.24099562,19.1172186 4.07814591,18.974289 3.9335446,18.8056466 C3.62895789,18.4503525 3.47174439,18.0190652 3.41667578,17.534791 C3.40401739,17.4234037 3.39034263,17.3121206 3.37371117,17.20141 C3.3452991,17.0118434 3.26163361,16.8583997 3.12206794,16.7479493 C3.01941487,16.6666991 2.91320452,16.5910182 2.80676318,16.516014 C2.40645317,16.2337462 2.04180841,15.9035923 1.73463458,15.4975494 C1.34513502,14.9826696 1.12361321,14.3844056 1.04027111,13.7167587 C0.950877015,13.0010175 1.01938939,12.2966233 1.15655274,11.5976423 C1.18427184,11.4563262 1.24123459,11.3226615 1.27546768,11.1825946 C1.35072504,10.8749264 1.39059434,10.5621052 1.33085968,10.2450679 C1.30891539,10.1286318 1.26636657,10.0171405 1.23139431,9.8973211 C1.25269182,9.91054183 1.27819339,9.92230516 1.2995833,9.94026245 C1.53616582,10.1391459 1.6599316,10.4086615 1.68326184,10.7370456 C1.7029424,11.0133277 1.65424918,11.2844567 1.62814703,11.5573034 C1.61313252,11.7142866 1.59756362,11.8718423 1.5951613,12.0294501 C1.59275898,12.1878906 1.6569287,12.3158818 1.78161845,12.4222723 C1.78716227,12.382558 1.79289088,12.356585 1.79413824,12.3302997 C1.81816146,11.8274435 1.83349937,11.3239107 1.86777865,10.8219914 C1.89757669,10.386332 1.95666457,9.95415983 2.0634293,9.53213748 C2.12709084,9.28042311 2.22817316,9.05499405 2.38524806,8.85720361 C2.64636198,8.52840302 2.90031514,8.19215926 3.15214317,7.8541458 C3.30432103,7.64990114 3.43520138,7.42837584 3.55014325,7.19409826 C3.69118727,6.90672957 3.71202279,6.60051873 3.67455581,6.28535527 C3.66356057,6.19301836 3.625493,6.10479341 3.59754291,6.00662689 C3.63741221,5.98742039 3.67889847,6.0134975 3.7178438,6.03978281 C3.79374794,6.09094808 3.84890895,6.1674097 3.87307077,6.26047531 C3.90494773,6.38331359 3.93562354,6.50989947 3.94347728,6.63669356 C3.9705034,7.07276944 3.90402376,7.4993722 3.82040447,7.92295605 C3.71428652,8.46068582 3.54312108,8.97494097 3.37717606,9.49133019 C3.27161249,9.81981848 3.17376406,10.1514298 3.07148058,10.4812714 C2.91006302,11.0018766 2.84173544,11.5380969 2.8522687,12.0887351 C2.87564514,13.311028 3.18231079,14.4250567 3.85597732,15.3950106 C4.37931393,16.1485402 5.05713833,16.6677922 5.8407573,17.019755 C6.44392492,17.290728 7.0698222,17.4410487 7.7199275,17.437249 C8.43817559,17.433033 9.12001926,17.2558544 9.74004933,16.8336238 C10.5392834,16.2893878 11.0363793,15.5019736 11.2126727,14.4652394 C11.2828483,14.0529504 11.2855278,13.6369138 11.2347094,13.2219703 C11.22182,13.1169852 11.1878641,13.0113755 11.1465627,12.915343 C10.9702692,12.5058648 10.6937712,12.2040261 10.3228434,12.029398 C9.82699491,11.7959012 9.31696347,11.7768508 8.8076712,11.9763069 C8.45559242,12.1141876 8.19286155,12.3705345 8.06091863,12.7725696 C8.02539199,12.8806777 8.00099918,12.9966453 7.99088171,13.1111556 C7.97776133,13.2596546 7.98330515,13.4102876 7.98256598,13.5600358 C7.98238118,13.5917864 7.98977294,13.623641 7.99369982,13.6554437 C8.00113778,13.6577339 8.00848334,13.6600241 8.0157827,13.6623143 Z" id="Shape"></path>
            <path d="M16,4 C15.9689068,4.04745999 15.9516583,4.07640138 15.9320181,4.10340364 C15.2258893,5.07674557 14.5191166,6.04955424 13.8144596,7.02405965 C13.7682338,7.08800217 13.7186502,7.11476205 13.6420671,7.12406983 C13.22953,7.17434155 12.816395,7.22248023 12.4063417,7.29064035 C11.5851772,7.42705753 10.7751897,7.61966075 9.978679,7.87140717 C9.05747346,8.16256623 8.16455539,8.52702408 7.32411862,9.02523282 C6.67286292,9.41131186 6.07114478,9.86656906 5.55557693,10.4405974 C4.98927563,11.0711027 4.57779646,11.7952191 4.36782526,12.6399973 C4.26755423,13.043286 4.21695876,13.4533132 4.2154409,13.8701758 C4.21530291,13.911673 4.2154409,13.9532187 4.19681256,14 C4.18485363,13.9709617 4.17077889,13.942699 4.16130374,13.912788 C4.03044546,13.4994158 3.98845122,13.0736818 4.00261795,12.6401427 C4.02740973,11.8797163 4.24538422,11.1790148 4.59453896,10.5195682 C4.95868836,9.83185879 5.43925335,9.24289918 5.9871103,8.71240407 C6.73104771,7.99206899 7.56555101,7.40689067 8.44697011,6.89287809 C9.60151276,6.2195667 10.8135503,5.68359358 12.0553011,5.21922251 C13.3166922,4.74757973 14.6014952,4.35888287 15.899591,4.01754905 C15.9240608,4.01114995 15.9494965,4.00867757 16,4 Z" id="Shape"></path>
            <path d="M4.44193995,15 C4.28261887,14.6980132 4.18846532,14.3756226 4.12191994,14.0443957 C3.90544331,12.967868 3.98867607,11.9069244 4.28118998,10.8584587 C4.56385477,9.84528464 5.02579404,8.92416859 5.59724741,8.06051518 C6.25489339,7.0665667 7.03445418,6.18647245 7.88525528,5.37364109 C8.97799783,4.32962031 10.1668842,3.41894714 11.4098642,2.58383763 C12.2210646,2.03882611 13.0531881,1.53092701 13.9007232,1.05076849 C13.9324649,1.03277459 13.9655845,1.01740481 13.9996737,1 C14.0156977,1.1183527 13.4368957,4.883361 13.2859949,5.65088631 C13.0409405,5.72837787 12.7891499,5.80806512 12.5205699,5.89300059 C12.6105899,5.1749585 12.6985686,4.47260751 12.7895582,3.74685375 C12.7326578,3.76677556 12.6917814,3.77855728 12.652691,3.79505168 C12.0048942,4.06849462 11.3777142,4.38756493 10.7660988,4.74048091 C9.60681087,5.40936111 8.51952872,6.18625823 7.5394132,7.1224763 C6.69483798,7.92925615 5.96018511,8.83093236 5.39403904,9.87666685 C4.93225286,10.7297167 4.61447825,11.6375515 4.46505733,12.6072404 C4.36493306,13.2570556 4.34385695,13.9106732 4.40203313,14.5665399 C4.41479107,14.7110802 4.42862067,14.8555133 4.44193995,15 Z" id="Shape"></path>
            <path d="M7,0 C7,1.34143171 7,2.66715812 7,4.00106126 C6.79838233,4.14345595 6.59267019,4.28869254 6.36789756,4.44739082 C6.36789756,3.95309779 6.36789756,3.48084203 6.36789756,3.00803784 C6.30346838,2.99382828 6.27193621,3.03501106 6.236639,3.05869365 C5.75297309,3.38336948 5.29006194,3.73895733 4.842258,4.11678187 C3.88490352,4.92468224 3.00746194,5.8182388 2.25064268,6.84013006 C1.64809577,7.65361453 1.14188671,8.527178 0.784255372,9.49292906 C0.417729139,10.4826619 0.243690361,11.5065973 0.300636527,12.5703693 C0.325391637,13.0331022 0.397821513,13.4886555 0.511290279,13.9366304 C0.516043636,13.9553272 0.519479231,13.9743231 0.508937131,14 C0.492276848,13.9642518 0.474345865,13.9291517 0.45909747,13.8927553 C0.270139737,13.4416892 0.154223698,12.9682867 0.0802878079,12.4827188 C-0.00108402783,11.9488883 -0.0161441709,11.4110193 0.015152689,10.8726019 C0.0591565446,10.1170027 0.203357415,9.38089794 0.424412078,8.66149567 C0.752817324,7.59293725 1.23234169,6.60280559 1.81229839,5.66507477 C2.46242594,4.61386696 3.22098653,3.65599348 4.04792957,2.75730154 C4.93760753,1.7904536 5.8966092,0.90617065 6.9004148,0.075534995 C6.92898201,0.0518025477 6.95938468,0.0306627208 7,0 Z" id="Shape"></path>
        </g>
    </g>
</svg>