<?xml version="1.0" encoding="UTF-8"?>
<svg width="24px" height="24px" viewBox="0 0 24 24" version="1.1" xmlns="http://www.w3.org/2000/svg" xmlns:xlink="http://www.w3.org/1999/xlink">
    <!-- Generator: Sketch 50 (54983) - http://www.bohemiancoding.com/sketch -->
    <title>Artboard</title>
    <desc>Created with Sketch.</desc>
    <defs></defs>
    <g id="Artboard" stroke="none" stroke-width="1" fill="none" fill-rule="evenodd">
        <g id="未标题-1" transform="translate(3.000000, 1.000000)" fill="#F72D26" fill-rule="nonzero">
            <path d="M9.09513388,15.2096224 C9.11331122,15.1704733 9.13095549,15.1310454 9.14966588,15.0921751 C9.37184513,14.6307508 9.73389923,14.3849255 10.2214356,14.3377458 C10.566645,14.3043408 10.9030589,14.3618376 11.2277455,14.479508 C11.4711405,14.567733 11.6435853,14.7541653 11.7709333,14.9844871 C11.9310644,15.2738114 11.9752017,15.5905178 11.9315974,15.9153663 C11.9027056,16.1302961 11.8497195,16.343274 11.7904966,16.5518463 C11.678554,16.9461259 11.4519504,17.2620515 11.1328076,17.4975597 C10.4467066,18.0037657 9.69093462,18.1691735 8.87508687,17.9442612 C8.42774324,17.8209582 8.09250204,17.5381588 7.918618,17.0740576 C7.8444161,16.8759698 7.82202759,16.6684571 7.81989535,16.4574868 C7.81962882,16.4309413 7.81776312,16.4043399 7.81589741,16.3778501 C7.81563088,16.3742252 7.81115318,16.3709349 7.79963909,16.3553757 C7.76376418,16.3537026 7.71818758,16.3499662 7.67255767,16.3496873 C7.44771313,16.3481816 7.2319839,16.3001653 7.02776876,16.2030175 C6.61523392,16.0068258 6.36187068,15.6644661 6.24950171,15.215255 C6.08883754,14.5728636 6.11335828,13.931253 6.33724332,13.3086592 C6.5739751,12.6503739 7.0397626,12.2365755 7.67175808,12.024211 C8.10849383,11.8774855 8.55519779,11.8342095 9.00899145,11.9304093 C9.06661519,11.9426225 9.12317282,11.9608028 9.18570071,11.9777563 C9.19359,11.9593529 9.2034516,11.9447417 9.2061702,11.9288478 C9.28005227,11.4939133 9.50910799,11.1701244 9.85847526,10.9333335 C10.1059215,10.765695 10.3805539,10.667376 10.6691523,10.6243789 C11.5127725,10.4986779 12.3353368,10.5978891 13.1309816,10.9158781 C13.4531628,11.0446464 13.7396824,11.2378267 13.970284,11.5108668 C14.3234893,11.9290709 14.4571806,12.4215579 14.4116573,12.9720994 C14.4054205,13.0472747 14.3941197,13.121948 14.3842047,13.2048192 C14.4005164,13.2139652 14.4173611,13.2276283 14.4364446,13.2334282 C14.8021768,13.344518 15.0885897,13.5758994 15.3246285,13.8803368 C15.5844951,14.2155024 15.7472382,14.6019187 15.843722,15.0179479 C16.063769,15.9670074 16.0737905,16.9126651 15.7289009,17.832781 C15.2147649,19.2043388 14.2877743,20.115978 12.9163185,20.500554 C12.2344819,20.6917825 11.5490205,20.6600505 10.8675038,20.4809237 C10.8469277,20.4755142 10.8263516,20.4701047 10.8054557,20.4663125 C10.7975131,20.4648625 10.7887709,20.4678182 10.7878114,20.4679298 C10.6542267,20.6252512 10.5319961,20.7861419 10.3933473,20.9294656 C9.8615137,21.4791706 9.22008306,21.8082575 8.48510045,21.9388103 C7.76978775,22.0659055 7.06694864,21.9846516 6.37173228,21.790579 C5.87172236,21.6510475 5.38770422,21.4701362 4.9440387,21.1853849 C4.73961033,21.0541628 4.55170682,20.9010239 4.38485916,20.7203357 C4.03341295,20.3396634 3.85201276,19.8775699 3.78847205,19.3587046 C3.77386622,19.2393611 3.75808765,19.1201292 3.73889751,19.0015107 C3.70611434,18.7984037 3.60957724,18.6339997 3.44853993,18.51566 C3.33009409,18.4286062 3.20754368,18.3475195 3.08472674,18.2671579 C2.62283058,17.9647281 2.20208662,17.6109918 1.84765528,17.1759457 C1.39823271,16.6242889 1.14263062,15.9832917 1.04646667,15.2679558 C0.943319633,14.5010902 1.02237237,13.7463821 1.18063778,12.9974739 C1.21262135,12.8460638 1.2783476,12.7028516 1.31784732,12.55278 C1.40468273,12.2231354 1.45068578,11.8879699 1.38176117,11.5482871 C1.35644084,11.4235341 1.30734605,11.3040791 1.26699343,11.1757012 C1.29156748,11.1898662 1.32099237,11.2024698 1.34567303,11.2217098 C1.61865287,11.4347992 1.76145954,11.7235658 1.78837905,12.075406 C1.81108739,12.3714225 1.75490291,12.6619179 1.72478504,12.9542537 C1.7074606,13.1224499 1.68949649,13.2912596 1.68672458,13.4601251 C1.68395267,13.6298828 1.75799465,13.7670163 1.90186744,13.881006 C1.90826416,13.8384551 1.9148741,13.8106268 1.91631336,13.782464 C1.94403246,13.2436895 1.96173004,12.7041901 2.00128306,12.1664194 C2.03566541,11.6996414 2.10384373,11.2365998 2.22703381,10.784433 C2.30048943,10.514739 2.41712287,10.2732079 2.59836314,10.0612896 C2.89964844,9.70900323 3.19267131,9.34874206 3.48324211,8.98658478 C3.65883195,8.76775122 3.80984774,8.53040269 3.94247298,8.279391 C4.10521608,7.97149596 4.12925707,7.64341292 4.08602593,7.30573778 C4.07333911,7.20680538 4.029415,7.11227865 3.99716489,7.00710024 C4.04316794,6.98652185 4.09103669,7.01446161 4.13597362,7.04262444 C4.22355532,7.09744437 4.28720263,7.17936754 4.31508165,7.27908069 C4.35186277,7.41069313 4.38725793,7.54632086 4.39631994,7.68217167 C4.42750393,8.14939583 4.35079665,8.60647021 4.25431286,9.06031006 C4.13186906,9.63644909 3.93437047,10.1874368 3.74289546,10.7407109 C3.62109133,11.0926627 3.5081893,11.4479605 3.3901699,11.8013622 C3.20391887,12.3591535 3.12507935,12.9336753 3.13723311,13.5236448 C3.16420593,14.8332443 3.51805091,16.0268465 4.29535845,17.0660828 C4.89920838,17.8734359 5.68131346,18.4297773 6.58548919,18.8068804 C7.28145183,19.0972085 8.003641,19.2582665 8.7537625,19.2541954 C9.5825103,19.2496782 10.369253,19.059844 11.0846723,18.6074541 C12.0068655,18.0243441 12.5804376,17.180686 12.7838532,16.0698993 C12.8648249,15.6281612 12.8679167,15.1824077 12.8092801,14.7378253 C12.7944077,14.6253413 12.7552279,14.5121881 12.7075723,14.4092961 C12.5041568,13.9705694 12.1851206,13.6471709 11.757127,13.4600693 C11.1849941,13.2098941 10.5964963,13.189483 10.0088514,13.4031859 C9.60260664,13.5509153 9.29945564,13.8255726 9.14721381,14.2563245 C9.10622152,14.3721546 9.07807598,14.4964057 9.06640197,14.6190953 C9.05126308,14.7782013 9.05765979,14.9395939 9.0568069,15.1000384 C9.05659367,15.1340568 9.06512263,15.1681868 9.06965363,15.2022611 C9.07823589,15.2047149 9.08671154,15.2071687 9.09513388,15.2096224 Z" id="Shape"></path>
            <path d="M18,4 C17.9637246,4.05220599 17.9436014,4.08404152 17.9206878,4.11374401 C17.0968708,5.18442013 16.2723027,6.25450967 15.4502029,7.32646561 C15.3962727,7.39680239 15.3384253,7.42623825 15.2490782,7.43647681 C14.767785,7.4917757 14.2857941,7.54472826 13.8073986,7.61970438 C12.8493734,7.76976328 11.904388,7.98162683 10.9751255,8.25854789 C9.9003857,8.57882286 8.85864796,8.97972649 7.87813839,9.5277561 C7.11834007,9.95244305 6.41633558,10.453226 5.81483976,11.0846572 C5.1541549,11.778213 4.67409587,12.574741 4.42912946,13.503997 C4.3121466,13.9476146 4.25311855,14.3986446 4.25134771,14.8571934 C4.25118673,14.9028403 4.25134771,14.9485406 4.22961466,15 C4.21566257,14.9680578 4.19924204,14.9369689 4.1881877,14.9040668 C4.0355197,14.4493574 3.98652642,13.9810499 4.00305427,13.504157 C4.03197802,12.6676879 4.28628159,11.8969163 4.69362879,11.171525 C5.11846976,10.4150447 5.6791289,9.7671891 6.31829536,9.18364448 C7.18622233,8.39127589 8.15980951,7.74757973 9.1881318,7.1821659 C10.5350982,6.44152337 11.949142,5.85195294 13.3978513,5.34114476 C14.8694742,4.82233771 16.3684111,4.39477116 17.8828562,4.01930395 C17.9114043,4.01226494 17.9410793,4.00954532 18,4 Z" id="Shape"></path>
            <path d="M4.48613394,16 C4.31088076,15.6764427 4.20731185,15.3310242 4.13411193,14.9761382 C3.89598764,13.8227158 3.98754368,12.6859905 4.30930898,11.5626344 C4.62024024,10.4770907 5.12837344,9.49018063 5.75697215,8.5648377 C6.48038273,7.49989289 7.3378996,6.55693476 8.2737808,5.68604402 C9.47579761,4.56745033 10.7835726,3.59172908 12.1508506,2.69696889 C13.0431711,2.11302798 13.9585069,1.56885036 14.8907955,1.05439481 C14.9257114,1.03511564 14.962143,1.01864801 14.9996411,1 C15.0172674,1.12680647 14.3805853,5.16074393 14.2145944,5.98309247 C13.9450345,6.06611915 13.6680649,6.15149834 13.3726269,6.24250063 C13.4716488,5.47316982 13.5684254,4.7206509 13.668514,3.94305759 C13.6059236,3.96440238 13.5609595,3.97702565 13.5179601,3.99469823 C12.8053836,4.2876728 12.1154856,4.62953386 11.4427087,5.00765812 C10.167492,5.72431547 8.97148159,6.55670525 7.89335452,7.55979604 C6.96432178,8.42420301 6.15620363,9.39028467 5.53344294,10.5107145 C5.02547815,11.4246965 4.67592607,12.3973767 4.51156306,13.436329 C4.40142637,14.1325596 4.37824265,14.8328641 4.44223644,15.5355785 C4.45627017,15.690443 4.47148273,15.8451928 4.48613394,16 Z" id="Shape"></path>
            <path d="M8,0 C8,1.43724826 8,2.85766942 8,4.28685136 C7.76957981,4.43941709 7.53448022,4.59502772 7.27759721,4.76506159 C7.27759721,4.23546192 7.27759721,3.72947361 7.27759721,3.22289768 C7.20396386,3.20767316 7.16792709,3.25179756 7.12758742,3.27717176 C6.57482639,3.62503873 6.04578507,4.00602571 5.53400914,4.41083772 C4.43988974,5.27644526 3.43709936,6.23382728 2.57216306,7.32871078 C1.88353802,8.20030129 1.30501338,9.13626214 0.896291854,10.1709954 C0.477404731,11.2314234 0.278503269,12.3284971 0.343584602,13.4682529 C0.371876157,13.9640381 0.454653157,14.4521309 0.584331747,14.932104 C0.589764156,14.9521362 0.59369055,14.972489 0.581642436,15 C0.562602112,14.9616983 0.54210956,14.9240911 0.524682823,14.8850949 C0.308731128,14.4018098 0.176255655,13.8945929 0.0917574948,13.3743416 C-0.00123888895,12.8023804 -0.0184504811,12.2260922 0.0173173588,11.6492163 C0.0676074796,10.8396457 0.232408474,10.0509621 0.485042375,9.28017393 C0.860362656,8.13528991 1.40839051,7.07443456 2.07119816,6.06972297 C2.81420108,4.94342888 3.68112746,3.91713587 4.62620523,2.95425165 C5.64298003,1.91834314 6.73898195,0.970897125 7.88618835,0.0809303518 C7.91883659,0.0555027297 7.95358249,0.0328529151 8,0 Z" id="Shape"></path>
        </g>
    </g>
</svg>